<svg xmlns="http://www.w3.org/2000/svg">
    <symbol id="instagram" viewBox="0 0 512 512">
        <g>
            <path d="M352,0H160C71.648,0,0,71.648,0,160v192c0,88.352,71.648,160,160,160h192c88.352,0,160-71.648,160-160V160    C512,71.648,440.352,0,352,0z M464,352c0,61.76-50.24,112-112,112H160c-61.76,0-112-50.24-112-112V160C48,98.24,98.24,48,160,48    h192c61.76,0,112,50.24,112,112V352z"/>
            <path d="M256,128c-70.688,0-128,57.312-128,128s57.312,128,128,128s128-57.312,128-128S326.688,128,256,128z M256,336    c-44.096,0-80-35.904-80-80c0-44.128,35.904-80,80-80s80,35.872,80,80C336,300.096,300.096,336,256,336z"/>
            <circle cx="393.6" cy="118.4" r="17.056"/>
        </g>
    </symbol>

    <symbol id="facebook" viewBox="0 0 512 512">
        <g>
            <path xmlns="http://www.w3.org/2000/svg" d="M448,0H64C28.704,0,0,28.704,0,64v384c0,35.296,28.704,64,64,64h192V336h-64v-80h64v-64c0-53.024,42.976-96,96-96h64v80    h-32c-17.664,0-32-1.664-32,16v64h80l-32,80h-48v176h96c35.296,0,64-28.704,64-64V64C512,28.704,483.296,0,448,0z"/>
        </g>
    </symbol>

    <symbol id="twitter" viewBox="0 0 512 512" >
        <g>
             <path xmlns="http://www.w3.org/2000/svg" d="M512,97.248c-19.04,8.352-39.328,13.888-60.48,16.576c21.76-12.992,38.368-33.408,46.176-58.016    c-20.288,12.096-42.688,20.64-66.56,25.408C411.872,60.704,384.416,48,354.464,48c-58.112,0-104.896,47.168-104.896,104.992    c0,8.32,0.704,16.32,2.432,23.936c-87.264-4.256-164.48-46.08-216.352-109.792c-9.056,15.712-14.368,33.696-14.368,53.056    c0,36.352,18.72,68.576,46.624,87.232c-16.864-0.32-33.408-5.216-47.424-12.928c0,0.32,0,0.736,0,1.152    c0,51.008,36.384,93.376,84.096,103.136c-8.544,2.336-17.856,3.456-27.52,3.456c-6.72,0-13.504-0.384-19.872-1.792    c13.6,41.568,52.192,72.128,98.08,73.12c-35.712,27.936-81.056,44.768-130.144,44.768c-8.608,0-16.864-0.384-25.12-1.44    C46.496,446.88,101.6,464,161.024,464c193.152,0,298.752-160,298.752-298.688c0-4.64-0.16-9.12-0.384-13.568    C480.224,136.96,497.728,118.496,512,97.248z"/>
        </g>
    </symbol>

    <symbol id="info" viewBox="0 0 22 22">
        <g>
            <path d="M11 0.5C5.20156 0.5 0.5 5.20156 0.5 11C0.5 16.7984 5.20156 21.5 11 
            21.5C16.7984 21.5 21.5 16.7984 21.5 11C21.5 5.20156 16.7984 0.5 11 0.5ZM11 
            19.7188C6.18594 19.7188 2.28125 15.8141 2.28125 11C2.28125 6.18594 6.18594 
            2.28125 11 2.28125C15.8141 2.28125 19.7188 6.18594 19.7188 11C19.7188 15.8141 
            15.8141 19.7188 11 19.7188Z"/>
            <path d="M9.875 6.875C9.875 7.17337 9.99353 7.45952 10.2045 7.6705C10.4155 
            7.88147 10.7016 8 11 8C11.2984 8 11.5845 7.88147 11.7955 7.6705C12.0065 
            7.45952 12.125 7.17337 12.125 6.875C12.125 6.57663 12.0065 6.29048 11.7955 
            6.0795C11.5845 5.86853 11.2984 5.75 11 5.75C10.7016 5.75 10.4155 5.86853 
            10.2045 6.0795C9.99353 6.29048 9.875 6.57663 9.875 6.875ZM11.5625 
            9.5H10.4375C10.3344 9.5 10.25 9.58437 10.25 9.6875V16.0625C10.25 16.1656 
            10.3344 16.25 10.4375 16.25H11.5625C11.6656 16.25 11.75 16.1656 11.75 
            16.0625V9.6875C11.75 9.58437 11.6656 9.5 11.5625 9.5Z"/>
        </g>
    </symbol>
</svg>    